<?xml version="1.0" encoding="utf-8" standalone="no"?>
<!DOCTYPE svg PUBLIC "-//W3C//DTD SVG 1.1//EN"
  "http://www.w3.org/Graphics/SVG/1.1/DTD/svg11.dtd">
<!-- Created with matplotlib (https://matplotlib.org/) -->
<svg height="144pt" version="1.1" viewBox="0 0 576 144" width="576pt" xmlns="http://www.w3.org/2000/svg" xmlns:xlink="http://www.w3.org/1999/xlink">
 <defs>
  <style type="text/css">
*{stroke-linecap:butt;stroke-linejoin:round;}
  </style>
 </defs>
 <g id="figure_1">
  <g id="patch_1">
   <path d="M 0 144 
L 576 144 
L 576 0 
L 0 0 
z
" style="fill:#ffffff;"/>
  </g>
  <g id="axes_1">
   <g id="patch_2">
    <path d="M 72 115.2 
L 139.636364 115.2 
L 139.636364 31.68 
L 72 31.68 
z
" style="fill:#ffffff;"/>
   </g>
   <g id="patch_3">
    <path clip-path="url(#pbe18da5d9f)" d="M 75.07438 115.2 
L 88.019139 115.2 
L 88.019139 69.55632 
L 75.07438 69.55632 
z
" style="fill:#808080;stroke:#000000;stroke-linejoin:miter;"/>
   </g>
   <g id="patch_4">
    <path clip-path="url(#pbe18da5d9f)" d="M 91.255328 115.2 
L 104.200087 115.2 
L 104.200087 92.6496 
L 91.255328 92.6496 
z
" style="fill:#dda0dd;stroke:#000000;stroke-linejoin:miter;"/>
   </g>
   <g id="patch_5">
    <path clip-path="url(#pbe18da5d9f)" d="M 107.436277 115.2 
L 120.381035 115.2 
L 120.381035 43.53984 
L 107.436277 43.53984 
z
" style="fill:#eee8aa;stroke:#000000;stroke-linejoin:miter;"/>
   </g>
   <g id="patch_6">
    <path clip-path="url(#pbe18da5d9f)" d="M 123.617225 115.2 
L 136.561983 115.2 
L 136.561983 99.3312 
L 123.617225 99.3312 
z
" style="fill:#87ceeb;stroke:#000000;stroke-linejoin:miter;"/>
   </g>
   <g id="matplotlib.axis_1"/>
   <g id="matplotlib.axis_2">
    <g id="ytick_1">
     <g id="line2d_1">
      <defs>
       <path d="M 0 0 
L -3.5 0 
" id="m62a07ed7c0" style="stroke:#000000;stroke-width:0.8;"/>
      </defs>
      <g>
       <use style="stroke:#000000;stroke-width:0.8;" x="72" xlink:href="#m62a07ed7c0" y="115.2"/>
      </g>
     </g>
     <g id="text_1">
      <!-- 0.0 -->
      <defs>
       <path d="M 31.78125 66.40625 
Q 24.171875 66.40625 20.328125 58.90625 
Q 16.5 51.421875 16.5 36.375 
Q 16.5 21.390625 20.328125 13.890625 
Q 24.171875 6.390625 31.78125 6.390625 
Q 39.453125 6.390625 43.28125 13.890625 
Q 47.125 21.390625 47.125 36.375 
Q 47.125 51.421875 43.28125 58.90625 
Q 39.453125 66.40625 31.78125 66.40625 
z
M 31.78125 74.21875 
Q 44.046875 74.21875 50.515625 64.515625 
Q 56.984375 54.828125 56.984375 36.375 
Q 56.984375 17.96875 50.515625 8.265625 
Q 44.046875 -1.421875 31.78125 -1.421875 
Q 19.53125 -1.421875 13.0625 8.265625 
Q 6.59375 17.96875 6.59375 36.375 
Q 6.59375 54.828125 13.0625 64.515625 
Q 19.53125 74.21875 31.78125 74.21875 
z
" id="DejaVuSans-48"/>
       <path d="M 10.6875 12.40625 
L 21 12.40625 
L 21 0 
L 10.6875 0 
z
" id="DejaVuSans-46"/>
      </defs>
      <g transform="translate(49.096875 118.999219)scale(0.1 -0.1)">
       <use xlink:href="#DejaVuSans-48"/>
       <use x="63.623047" xlink:href="#DejaVuSans-46"/>
       <use x="95.410156" xlink:href="#DejaVuSans-48"/>
      </g>
     </g>
    </g>
    <g id="ytick_2">
     <g id="line2d_2">
      <g>
       <use style="stroke:#000000;stroke-width:0.8;" x="72" xlink:href="#m62a07ed7c0" y="94.32"/>
      </g>
     </g>
     <g id="text_2">
      <!-- 0.1 -->
      <defs>
       <path d="M 12.40625 8.296875 
L 28.515625 8.296875 
L 28.515625 63.921875 
L 10.984375 60.40625 
L 10.984375 69.390625 
L 28.421875 72.90625 
L 38.28125 72.90625 
L 38.28125 8.296875 
L 54.390625 8.296875 
L 54.390625 0 
L 12.40625 0 
z
" id="DejaVuSans-49"/>
      </defs>
      <g transform="translate(49.096875 98.119219)scale(0.1 -0.1)">
       <use xlink:href="#DejaVuSans-48"/>
       <use x="63.623047" xlink:href="#DejaVuSans-46"/>
       <use x="95.410156" xlink:href="#DejaVuSans-49"/>
      </g>
     </g>
    </g>
    <g id="ytick_3">
     <g id="line2d_3">
      <g>
       <use style="stroke:#000000;stroke-width:0.8;" x="72" xlink:href="#m62a07ed7c0" y="73.44"/>
      </g>
     </g>
     <g id="text_3">
      <!-- 0.2 -->
      <defs>
       <path d="M 19.1875 8.296875 
L 53.609375 8.296875 
L 53.609375 0 
L 7.328125 0 
L 7.328125 8.296875 
Q 12.9375 14.109375 22.625 23.890625 
Q 32.328125 33.6875 34.8125 36.53125 
Q 39.546875 41.84375 41.421875 45.53125 
Q 43.3125 49.21875 43.3125 52.78125 
Q 43.3125 58.59375 39.234375 62.25 
Q 35.15625 65.921875 28.609375 65.921875 
Q 23.96875 65.921875 18.8125 64.3125 
Q 13.671875 62.703125 7.8125 59.421875 
L 7.8125 69.390625 
Q 13.765625 71.78125 18.9375 73 
Q 24.125 74.21875 28.421875 74.21875 
Q 39.75 74.21875 46.484375 68.546875 
Q 53.21875 62.890625 53.21875 53.421875 
Q 53.21875 48.921875 51.53125 44.890625 
Q 49.859375 40.875 45.40625 35.40625 
Q 44.1875 33.984375 37.640625 27.21875 
Q 31.109375 20.453125 19.1875 8.296875 
z
" id="DejaVuSans-50"/>
      </defs>
      <g transform="translate(49.096875 77.239219)scale(0.1 -0.1)">
       <use xlink:href="#DejaVuSans-48"/>
       <use x="63.623047" xlink:href="#DejaVuSans-46"/>
       <use x="95.410156" xlink:href="#DejaVuSans-50"/>
      </g>
     </g>
    </g>
    <g id="ytick_4">
     <g id="line2d_4">
      <g>
       <use style="stroke:#000000;stroke-width:0.8;" x="72" xlink:href="#m62a07ed7c0" y="52.56"/>
      </g>
     </g>
     <g id="text_4">
      <!-- 0.3 -->
      <defs>
       <path d="M 40.578125 39.3125 
Q 47.65625 37.796875 51.625 33 
Q 55.609375 28.21875 55.609375 21.1875 
Q 55.609375 10.40625 48.1875 4.484375 
Q 40.765625 -1.421875 27.09375 -1.421875 
Q 22.515625 -1.421875 17.65625 -0.515625 
Q 12.796875 0.390625 7.625 2.203125 
L 7.625 11.71875 
Q 11.71875 9.328125 16.59375 8.109375 
Q 21.484375 6.890625 26.8125 6.890625 
Q 36.078125 6.890625 40.9375 10.546875 
Q 45.796875 14.203125 45.796875 21.1875 
Q 45.796875 27.640625 41.28125 31.265625 
Q 36.765625 34.90625 28.71875 34.90625 
L 20.21875 34.90625 
L 20.21875 43.015625 
L 29.109375 43.015625 
Q 36.375 43.015625 40.234375 45.921875 
Q 44.09375 48.828125 44.09375 54.296875 
Q 44.09375 59.90625 40.109375 62.90625 
Q 36.140625 65.921875 28.71875 65.921875 
Q 24.65625 65.921875 20.015625 65.03125 
Q 15.375 64.15625 9.8125 62.3125 
L 9.8125 71.09375 
Q 15.4375 72.65625 20.34375 73.4375 
Q 25.25 74.21875 29.59375 74.21875 
Q 40.828125 74.21875 47.359375 69.109375 
Q 53.90625 64.015625 53.90625 55.328125 
Q 53.90625 49.265625 50.4375 45.09375 
Q 46.96875 40.921875 40.578125 39.3125 
z
" id="DejaVuSans-51"/>
      </defs>
      <g transform="translate(49.096875 56.359219)scale(0.1 -0.1)">
       <use xlink:href="#DejaVuSans-48"/>
       <use x="63.623047" xlink:href="#DejaVuSans-46"/>
       <use x="95.410156" xlink:href="#DejaVuSans-51"/>
      </g>
     </g>
    </g>
    <g id="ytick_5">
     <g id="line2d_5">
      <g>
       <use style="stroke:#000000;stroke-width:0.8;" x="72" xlink:href="#m62a07ed7c0" y="31.68"/>
      </g>
     </g>
     <g id="text_5">
      <!-- 0.4 -->
      <defs>
       <path d="M 37.796875 64.3125 
L 12.890625 25.390625 
L 37.796875 25.390625 
z
M 35.203125 72.90625 
L 47.609375 72.90625 
L 47.609375 25.390625 
L 58.015625 25.390625 
L 58.015625 17.1875 
L 47.609375 17.1875 
L 47.609375 0 
L 37.796875 0 
L 37.796875 17.1875 
L 4.890625 17.1875 
L 4.890625 26.703125 
z
" id="DejaVuSans-52"/>
      </defs>
      <g transform="translate(49.096875 35.479219)scale(0.1 -0.1)">
       <use xlink:href="#DejaVuSans-48"/>
       <use x="63.623047" xlink:href="#DejaVuSans-46"/>
       <use x="95.410156" xlink:href="#DejaVuSans-52"/>
      </g>
     </g>
    </g>
   </g>
   <g id="LineCollection_1">
    <path clip-path="url(#pbe18da5d9f)" d="M 81.546759 70.541006 
L 81.546759 68.571634 
" style="fill:none;stroke:#696969;stroke-width:1.5;"/>
   </g>
   <g id="LineCollection_2">
    <path clip-path="url(#pbe18da5d9f)" d="M 97.727708 93.023113 
L 97.727708 92.276087 
" style="fill:none;stroke:#696969;stroke-width:1.5;"/>
   </g>
   <g id="LineCollection_3">
    <path clip-path="url(#pbe18da5d9f)" d="M 113.908656 49.833558 
L 113.908656 37.246122 
" style="fill:none;stroke:#696969;stroke-width:1.5;"/>
   </g>
   <g id="LineCollection_4">
    <path clip-path="url(#pbe18da5d9f)" d="M 130.089604 99.463257 
L 130.089604 99.199143 
" style="fill:none;stroke:#696969;stroke-width:1.5;"/>
   </g>
   <g id="line2d_6">
    <defs>
     <path d="M 3.5 0 
L -3.5 -0 
" id="ma7f889c3ba" style="stroke:#696969;"/>
    </defs>
    <g clip-path="url(#pbe18da5d9f)">
     <use style="fill:#696969;stroke:#696969;" x="81.546759" xlink:href="#ma7f889c3ba" y="70.541006"/>
    </g>
   </g>
   <g id="line2d_7">
    <g clip-path="url(#pbe18da5d9f)">
     <use style="fill:#696969;stroke:#696969;" x="81.546759" xlink:href="#ma7f889c3ba" y="68.571634"/>
    </g>
   </g>
   <g id="line2d_8">
    <g clip-path="url(#pbe18da5d9f)">
     <use style="fill:#696969;stroke:#696969;" x="97.727708" xlink:href="#ma7f889c3ba" y="93.023113"/>
    </g>
   </g>
   <g id="line2d_9">
    <g clip-path="url(#pbe18da5d9f)">
     <use style="fill:#696969;stroke:#696969;" x="97.727708" xlink:href="#ma7f889c3ba" y="92.276087"/>
    </g>
   </g>
   <g id="line2d_10">
    <g clip-path="url(#pbe18da5d9f)">
     <use style="fill:#696969;stroke:#696969;" x="113.908656" xlink:href="#ma7f889c3ba" y="49.833558"/>
    </g>
   </g>
   <g id="line2d_11">
    <g clip-path="url(#pbe18da5d9f)">
     <use style="fill:#696969;stroke:#696969;" x="113.908656" xlink:href="#ma7f889c3ba" y="37.246122"/>
    </g>
   </g>
   <g id="line2d_12">
    <g clip-path="url(#pbe18da5d9f)">
     <use style="fill:#696969;stroke:#696969;" x="130.089604" xlink:href="#ma7f889c3ba" y="99.463257"/>
    </g>
   </g>
   <g id="line2d_13">
    <g clip-path="url(#pbe18da5d9f)">
     <use style="fill:#696969;stroke:#696969;" x="130.089604" xlink:href="#ma7f889c3ba" y="99.199143"/>
    </g>
   </g>
   <g id="patch_7">
    <path d="M 72 115.2 
L 72 31.68 
" style="fill:none;stroke:#000000;stroke-linecap:square;stroke-linejoin:miter;stroke-width:0.8;"/>
   </g>
   <g id="patch_8">
    <path d="M 139.636364 115.2 
L 139.636364 31.68 
" style="fill:none;stroke:#000000;stroke-linecap:square;stroke-linejoin:miter;stroke-width:0.8;"/>
   </g>
   <g id="patch_9">
    <path d="M 72 115.2 
L 139.636364 115.2 
" style="fill:none;stroke:#000000;stroke-linecap:square;stroke-linejoin:miter;stroke-width:0.8;"/>
   </g>
   <g id="patch_10">
    <path d="M 72 31.68 
L 139.636364 31.68 
" style="fill:none;stroke:#000000;stroke-linecap:square;stroke-linejoin:miter;stroke-width:0.8;"/>
   </g>
   <g id="text_6">
    <!-- Census income -->
    <defs>
     <path d="M 64.40625 67.28125 
L 64.40625 56.890625 
Q 59.421875 61.53125 53.78125 63.8125 
Q 48.140625 66.109375 41.796875 66.109375 
Q 29.296875 66.109375 22.65625 58.46875 
Q 16.015625 50.828125 16.015625 36.375 
Q 16.015625 21.96875 22.65625 14.328125 
Q 29.296875 6.6875 41.796875 6.6875 
Q 48.140625 6.6875 53.78125 8.984375 
Q 59.421875 11.28125 64.40625 15.921875 
L 64.40625 5.609375 
Q 59.234375 2.09375 53.4375 0.328125 
Q 47.65625 -1.421875 41.21875 -1.421875 
Q 24.65625 -1.421875 15.125 8.703125 
Q 5.609375 18.84375 5.609375 36.375 
Q 5.609375 53.953125 15.125 64.078125 
Q 24.65625 74.21875 41.21875 74.21875 
Q 47.75 74.21875 53.53125 72.484375 
Q 59.328125 70.75 64.40625 67.28125 
z
" id="DejaVuSans-67"/>
     <path d="M 56.203125 29.59375 
L 56.203125 25.203125 
L 14.890625 25.203125 
Q 15.484375 15.921875 20.484375 11.0625 
Q 25.484375 6.203125 34.421875 6.203125 
Q 39.59375 6.203125 44.453125 7.46875 
Q 49.3125 8.734375 54.109375 11.28125 
L 54.109375 2.78125 
Q 49.265625 0.734375 44.1875 -0.34375 
Q 39.109375 -1.421875 33.890625 -1.421875 
Q 20.796875 -1.421875 13.15625 6.1875 
Q 5.515625 13.8125 5.515625 26.8125 
Q 5.515625 40.234375 12.765625 48.109375 
Q 20.015625 56 32.328125 56 
Q 43.359375 56 49.78125 48.890625 
Q 56.203125 41.796875 56.203125 29.59375 
z
M 47.21875 32.234375 
Q 47.125 39.59375 43.09375 43.984375 
Q 39.0625 48.390625 32.421875 48.390625 
Q 24.90625 48.390625 20.390625 44.140625 
Q 15.875 39.890625 15.1875 32.171875 
z
" id="DejaVuSans-101"/>
     <path d="M 54.890625 33.015625 
L 54.890625 0 
L 45.90625 0 
L 45.90625 32.71875 
Q 45.90625 40.484375 42.875 44.328125 
Q 39.84375 48.1875 33.796875 48.1875 
Q 26.515625 48.1875 22.3125 43.546875 
Q 18.109375 38.921875 18.109375 30.90625 
L 18.109375 0 
L 9.078125 0 
L 9.078125 54.6875 
L 18.109375 54.6875 
L 18.109375 46.1875 
Q 21.34375 51.125 25.703125 53.5625 
Q 30.078125 56 35.796875 56 
Q 45.21875 56 50.046875 50.171875 
Q 54.890625 44.34375 54.890625 33.015625 
z
" id="DejaVuSans-110"/>
     <path d="M 44.28125 53.078125 
L 44.28125 44.578125 
Q 40.484375 46.53125 36.375 47.5 
Q 32.28125 48.484375 27.875 48.484375 
Q 21.1875 48.484375 17.84375 46.4375 
Q 14.5 44.390625 14.5 40.28125 
Q 14.5 37.15625 16.890625 35.375 
Q 19.28125 33.59375 26.515625 31.984375 
L 29.59375 31.296875 
Q 39.15625 29.25 43.1875 25.515625 
Q 47.21875 21.78125 47.21875 15.09375 
Q 47.21875 7.46875 41.1875 3.015625 
Q 35.15625 -1.421875 24.609375 -1.421875 
Q 20.21875 -1.421875 15.453125 -0.5625 
Q 10.6875 0.296875 5.421875 2 
L 5.421875 11.28125 
Q 10.40625 8.6875 15.234375 7.390625 
Q 20.0625 6.109375 24.8125 6.109375 
Q 31.15625 6.109375 34.5625 8.28125 
Q 37.984375 10.453125 37.984375 14.40625 
Q 37.984375 18.0625 35.515625 20.015625 
Q 33.0625 21.96875 24.703125 23.78125 
L 21.578125 24.515625 
Q 13.234375 26.265625 9.515625 29.90625 
Q 5.8125 33.546875 5.8125 39.890625 
Q 5.8125 47.609375 11.28125 51.796875 
Q 16.75 56 26.8125 56 
Q 31.78125 56 36.171875 55.265625 
Q 40.578125 54.546875 44.28125 53.078125 
z
" id="DejaVuSans-115"/>
     <path d="M 8.5 21.578125 
L 8.5 54.6875 
L 17.484375 54.6875 
L 17.484375 21.921875 
Q 17.484375 14.15625 20.5 10.265625 
Q 23.53125 6.390625 29.59375 6.390625 
Q 36.859375 6.390625 41.078125 11.03125 
Q 45.3125 15.671875 45.3125 23.6875 
L 45.3125 54.6875 
L 54.296875 54.6875 
L 54.296875 0 
L 45.3125 0 
L 45.3125 8.40625 
Q 42.046875 3.421875 37.71875 1 
Q 33.40625 -1.421875 27.6875 -1.421875 
Q 18.265625 -1.421875 13.375 4.4375 
Q 8.5 10.296875 8.5 21.578125 
z
M 31.109375 56 
z
" id="DejaVuSans-117"/>
     <path id="DejaVuSans-32"/>
     <path d="M 9.421875 54.6875 
L 18.40625 54.6875 
L 18.40625 0 
L 9.421875 0 
z
M 9.421875 75.984375 
L 18.40625 75.984375 
L 18.40625 64.59375 
L 9.421875 64.59375 
z
" id="DejaVuSans-105"/>
     <path d="M 48.78125 52.59375 
L 48.78125 44.1875 
Q 44.96875 46.296875 41.140625 47.34375 
Q 37.3125 48.390625 33.40625 48.390625 
Q 24.65625 48.390625 19.8125 42.84375 
Q 14.984375 37.3125 14.984375 27.296875 
Q 14.984375 17.28125 19.8125 11.734375 
Q 24.65625 6.203125 33.40625 6.203125 
Q 37.3125 6.203125 41.140625 7.25 
Q 44.96875 8.296875 48.78125 10.40625 
L 48.78125 2.09375 
Q 45.015625 0.34375 40.984375 -0.53125 
Q 36.96875 -1.421875 32.421875 -1.421875 
Q 20.0625 -1.421875 12.78125 6.34375 
Q 5.515625 14.109375 5.515625 27.296875 
Q 5.515625 40.671875 12.859375 48.328125 
Q 20.21875 56 33.015625 56 
Q 37.15625 56 41.109375 55.140625 
Q 45.0625 54.296875 48.78125 52.59375 
z
" id="DejaVuSans-99"/>
     <path d="M 30.609375 48.390625 
Q 23.390625 48.390625 19.1875 42.75 
Q 14.984375 37.109375 14.984375 27.296875 
Q 14.984375 17.484375 19.15625 11.84375 
Q 23.34375 6.203125 30.609375 6.203125 
Q 37.796875 6.203125 41.984375 11.859375 
Q 46.1875 17.53125 46.1875 27.296875 
Q 46.1875 37.015625 41.984375 42.703125 
Q 37.796875 48.390625 30.609375 48.390625 
z
M 30.609375 56 
Q 42.328125 56 49.015625 48.375 
Q 55.71875 40.765625 55.71875 27.296875 
Q 55.71875 13.875 49.015625 6.21875 
Q 42.328125 -1.421875 30.609375 -1.421875 
Q 18.84375 -1.421875 12.171875 6.21875 
Q 5.515625 13.875 5.515625 27.296875 
Q 5.515625 40.765625 12.171875 48.375 
Q 18.84375 56 30.609375 56 
z
" id="DejaVuSans-111"/>
     <path d="M 52 44.1875 
Q 55.375 50.25 60.0625 53.125 
Q 64.75 56 71.09375 56 
Q 79.640625 56 84.28125 50.015625 
Q 88.921875 44.046875 88.921875 33.015625 
L 88.921875 0 
L 79.890625 0 
L 79.890625 32.71875 
Q 79.890625 40.578125 77.09375 44.375 
Q 74.3125 48.1875 68.609375 48.1875 
Q 61.625 48.1875 57.5625 43.546875 
Q 53.515625 38.921875 53.515625 30.90625 
L 53.515625 0 
L 44.484375 0 
L 44.484375 32.71875 
Q 44.484375 40.625 41.703125 44.40625 
Q 38.921875 48.1875 33.109375 48.1875 
Q 26.21875 48.1875 22.15625 43.53125 
Q 18.109375 38.875 18.109375 30.90625 
L 18.109375 0 
L 9.078125 0 
L 9.078125 54.6875 
L 18.109375 54.6875 
L 18.109375 46.1875 
Q 21.1875 51.21875 25.484375 53.609375 
Q 29.78125 56 35.6875 56 
Q 41.65625 56 45.828125 52.96875 
Q 50 49.953125 52 44.1875 
z
" id="DejaVuSans-109"/>
    </defs>
    <g transform="translate(71.602713 25.68)scale(0.09 -0.09)">
     <use xlink:href="#DejaVuSans-67"/>
     <use x="69.824219" xlink:href="#DejaVuSans-101"/>
     <use x="131.347656" xlink:href="#DejaVuSans-110"/>
     <use x="194.726562" xlink:href="#DejaVuSans-115"/>
     <use x="246.826172" xlink:href="#DejaVuSans-117"/>
     <use x="310.205078" xlink:href="#DejaVuSans-115"/>
     <use x="362.304688" xlink:href="#DejaVuSans-32"/>
     <use x="394.091797" xlink:href="#DejaVuSans-105"/>
     <use x="421.875" xlink:href="#DejaVuSans-110"/>
     <use x="485.253906" xlink:href="#DejaVuSans-99"/>
     <use x="540.234375" xlink:href="#DejaVuSans-111"/>
     <use x="601.416016" xlink:href="#DejaVuSans-109"/>
     <use x="698.828125" xlink:href="#DejaVuSans-101"/>
    </g>
   </g>
  </g>
  <g id="axes_2">
   <g id="patch_11">
    <path d="M 166.690909 115.2 
L 234.327273 115.2 
L 234.327273 31.68 
L 166.690909 31.68 
z
" style="fill:#ffffff;"/>
   </g>
   <g id="patch_12">
    <path clip-path="url(#p1f7b50a6f2)" d="M 169.765289 115.2 
L 182.710048 115.2 
L 182.710048 43.049856 
L 169.765289 43.049856 
z
" style="fill:#808080;stroke:#000000;stroke-linejoin:miter;"/>
   </g>
   <g id="patch_13">
    <path clip-path="url(#p1f7b50a6f2)" d="M 185.946237 115.2 
L 198.890996 115.2 
L 198.890996 66.74448 
L 185.946237 66.74448 
z
" style="fill:#dda0dd;stroke:#000000;stroke-linejoin:miter;"/>
   </g>
   <g id="patch_14">
    <path clip-path="url(#p1f7b50a6f2)" d="M 202.127186 115.2 
L 215.071944 115.2 
L 215.071944 93.576672 
L 202.127186 93.576672 
z
" style="fill:#eee8aa;stroke:#000000;stroke-linejoin:miter;"/>
   </g>
   <g id="patch_15">
    <path clip-path="url(#p1f7b50a6f2)" d="M 218.308134 115.2 
L 231.252893 115.2 
L 231.252893 111.035136 
L 218.308134 111.035136 
z
" style="fill:#87ceeb;stroke:#000000;stroke-linejoin:miter;"/>
   </g>
   <g id="matplotlib.axis_3"/>
   <g id="matplotlib.axis_4">
    <g id="ytick_6">
     <g id="line2d_14">
      <g>
       <use style="stroke:#000000;stroke-width:0.8;" x="166.690909" xlink:href="#m62a07ed7c0" y="115.2"/>
      </g>
     </g>
     <g id="text_7">
      <!-- 0.0 -->
      <g transform="translate(143.787784 118.999219)scale(0.1 -0.1)">
       <use xlink:href="#DejaVuSans-48"/>
       <use x="63.623047" xlink:href="#DejaVuSans-46"/>
       <use x="95.410156" xlink:href="#DejaVuSans-48"/>
      </g>
     </g>
    </g>
    <g id="ytick_7">
     <g id="line2d_15">
      <g>
       <use style="stroke:#000000;stroke-width:0.8;" x="166.690909" xlink:href="#m62a07ed7c0" y="94.32"/>
      </g>
     </g>
     <g id="text_8">
      <!-- 1.5 -->
      <defs>
       <path d="M 10.796875 72.90625 
L 49.515625 72.90625 
L 49.515625 64.59375 
L 19.828125 64.59375 
L 19.828125 46.734375 
Q 21.96875 47.46875 24.109375 47.828125 
Q 26.265625 48.1875 28.421875 48.1875 
Q 40.625 48.1875 47.75 41.5 
Q 54.890625 34.8125 54.890625 23.390625 
Q 54.890625 11.625 47.5625 5.09375 
Q 40.234375 -1.421875 26.90625 -1.421875 
Q 22.3125 -1.421875 17.546875 -0.640625 
Q 12.796875 0.140625 7.71875 1.703125 
L 7.71875 11.625 
Q 12.109375 9.234375 16.796875 8.0625 
Q 21.484375 6.890625 26.703125 6.890625 
Q 35.15625 6.890625 40.078125 11.328125 
Q 45.015625 15.765625 45.015625 23.390625 
Q 45.015625 31 40.078125 35.4375 
Q 35.15625 39.890625 26.703125 39.890625 
Q 22.75 39.890625 18.8125 39.015625 
Q 14.890625 38.140625 10.796875 36.28125 
z
" id="DejaVuSans-53"/>
      </defs>
      <g transform="translate(143.787784 98.119219)scale(0.1 -0.1)">
       <use xlink:href="#DejaVuSans-49"/>
       <use x="63.623047" xlink:href="#DejaVuSans-46"/>
       <use x="95.410156" xlink:href="#DejaVuSans-53"/>
      </g>
     </g>
    </g>
    <g id="ytick_8">
     <g id="line2d_16">
      <g>
       <use style="stroke:#000000;stroke-width:0.8;" x="166.690909" xlink:href="#m62a07ed7c0" y="73.44"/>
      </g>
     </g>
     <g id="text_9">
      <!-- 3.0 -->
      <g transform="translate(143.787784 77.239219)scale(0.1 -0.1)">
       <use xlink:href="#DejaVuSans-51"/>
       <use x="63.623047" xlink:href="#DejaVuSans-46"/>
       <use x="95.410156" xlink:href="#DejaVuSans-48"/>
      </g>
     </g>
    </g>
    <g id="ytick_9">
     <g id="line2d_17">
      <g>
       <use style="stroke:#000000;stroke-width:0.8;" x="166.690909" xlink:href="#m62a07ed7c0" y="52.56"/>
      </g>
     </g>
     <g id="text_10">
      <!-- 4.5 -->
      <g transform="translate(143.787784 56.359219)scale(0.1 -0.1)">
       <use xlink:href="#DejaVuSans-52"/>
       <use x="63.623047" xlink:href="#DejaVuSans-46"/>
       <use x="95.410156" xlink:href="#DejaVuSans-53"/>
      </g>
     </g>
    </g>
    <g id="ytick_10">
     <g id="line2d_18">
      <g>
       <use style="stroke:#000000;stroke-width:0.8;" x="166.690909" xlink:href="#m62a07ed7c0" y="31.68"/>
      </g>
     </g>
     <g id="text_11">
      <!-- 6.0 -->
      <defs>
       <path d="M 33.015625 40.375 
Q 26.375 40.375 22.484375 35.828125 
Q 18.609375 31.296875 18.609375 23.390625 
Q 18.609375 15.53125 22.484375 10.953125 
Q 26.375 6.390625 33.015625 6.390625 
Q 39.65625 6.390625 43.53125 10.953125 
Q 47.40625 15.53125 47.40625 23.390625 
Q 47.40625 31.296875 43.53125 35.828125 
Q 39.65625 40.375 33.015625 40.375 
z
M 52.59375 71.296875 
L 52.59375 62.3125 
Q 48.875 64.0625 45.09375 64.984375 
Q 41.3125 65.921875 37.59375 65.921875 
Q 27.828125 65.921875 22.671875 59.328125 
Q 17.53125 52.734375 16.796875 39.40625 
Q 19.671875 43.65625 24.015625 45.921875 
Q 28.375 48.1875 33.59375 48.1875 
Q 44.578125 48.1875 50.953125 41.515625 
Q 57.328125 34.859375 57.328125 23.390625 
Q 57.328125 12.15625 50.6875 5.359375 
Q 44.046875 -1.421875 33.015625 -1.421875 
Q 20.359375 -1.421875 13.671875 8.265625 
Q 6.984375 17.96875 6.984375 36.375 
Q 6.984375 53.65625 15.1875 63.9375 
Q 23.390625 74.21875 37.203125 74.21875 
Q 40.921875 74.21875 44.703125 73.484375 
Q 48.484375 72.75 52.59375 71.296875 
z
" id="DejaVuSans-54"/>
      </defs>
      <g transform="translate(143.787784 35.479219)scale(0.1 -0.1)">
       <use xlink:href="#DejaVuSans-54"/>
       <use x="63.623047" xlink:href="#DejaVuSans-46"/>
       <use x="95.410156" xlink:href="#DejaVuSans-48"/>
      </g>
     </g>
    </g>
   </g>
   <g id="LineCollection_5">
    <path clip-path="url(#p1f7b50a6f2)" d="M 176.237669 44.841602 
L 176.237669 41.25811 
" style="fill:none;stroke:#696969;stroke-width:1.5;"/>
   </g>
   <g id="LineCollection_6">
    <path clip-path="url(#p1f7b50a6f2)" d="M 192.418617 68.993687 
L 192.418617 64.495273 
" style="fill:none;stroke:#696969;stroke-width:1.5;"/>
   </g>
   <g id="LineCollection_7">
    <path clip-path="url(#p1f7b50a6f2)" d="M 208.599565 95.087145 
L 208.599565 92.066199 
" style="fill:none;stroke:#696969;stroke-width:1.5;"/>
   </g>
   <g id="LineCollection_8">
    <path clip-path="url(#p1f7b50a6f2)" d="M 224.780513 111.068544 
L 224.780513 111.001728 
" style="fill:none;stroke:#696969;stroke-width:1.5;"/>
   </g>
   <g id="line2d_19">
    <g clip-path="url(#p1f7b50a6f2)">
     <use style="fill:#696969;stroke:#696969;" x="176.237669" xlink:href="#ma7f889c3ba" y="44.841602"/>
    </g>
   </g>
   <g id="line2d_20">
    <g clip-path="url(#p1f7b50a6f2)">
     <use style="fill:#696969;stroke:#696969;" x="176.237669" xlink:href="#ma7f889c3ba" y="41.25811"/>
    </g>
   </g>
   <g id="line2d_21">
    <g clip-path="url(#p1f7b50a6f2)">
     <use style="fill:#696969;stroke:#696969;" x="192.418617" xlink:href="#ma7f889c3ba" y="68.993687"/>
    </g>
   </g>
   <g id="line2d_22">
    <g clip-path="url(#p1f7b50a6f2)">
     <use style="fill:#696969;stroke:#696969;" x="192.418617" xlink:href="#ma7f889c3ba" y="64.495273"/>
    </g>
   </g>
   <g id="line2d_23">
    <g clip-path="url(#p1f7b50a6f2)">
     <use style="fill:#696969;stroke:#696969;" x="208.599565" xlink:href="#ma7f889c3ba" y="95.087145"/>
    </g>
   </g>
   <g id="line2d_24">
    <g clip-path="url(#p1f7b50a6f2)">
     <use style="fill:#696969;stroke:#696969;" x="208.599565" xlink:href="#ma7f889c3ba" y="92.066199"/>
    </g>
   </g>
   <g id="line2d_25">
    <g clip-path="url(#p1f7b50a6f2)">
     <use style="fill:#696969;stroke:#696969;" x="224.780513" xlink:href="#ma7f889c3ba" y="111.068544"/>
    </g>
   </g>
   <g id="line2d_26">
    <g clip-path="url(#p1f7b50a6f2)">
     <use style="fill:#696969;stroke:#696969;" x="224.780513" xlink:href="#ma7f889c3ba" y="111.001728"/>
    </g>
   </g>
   <g id="patch_16">
    <path d="M 166.690909 115.2 
L 166.690909 31.68 
" style="fill:none;stroke:#000000;stroke-linecap:square;stroke-linejoin:miter;stroke-width:0.8;"/>
   </g>
   <g id="patch_17">
    <path d="M 234.327273 115.2 
L 234.327273 31.68 
" style="fill:none;stroke:#000000;stroke-linecap:square;stroke-linejoin:miter;stroke-width:0.8;"/>
   </g>
   <g id="patch_18">
    <path d="M 166.690909 115.2 
L 234.327273 115.2 
" style="fill:none;stroke:#000000;stroke-linecap:square;stroke-linejoin:miter;stroke-width:0.8;"/>
   </g>
   <g id="patch_19">
    <path d="M 166.690909 31.68 
L 234.327273 31.68 
" style="fill:none;stroke:#000000;stroke-linecap:square;stroke-linejoin:miter;stroke-width:0.8;"/>
   </g>
   <g id="text_12">
    <!-- Data mining -->
    <defs>
     <path d="M 19.671875 64.796875 
L 19.671875 8.109375 
L 31.59375 8.109375 
Q 46.6875 8.109375 53.6875 14.9375 
Q 60.6875 21.78125 60.6875 36.53125 
Q 60.6875 51.171875 53.6875 57.984375 
Q 46.6875 64.796875 31.59375 64.796875 
z
M 9.8125 72.90625 
L 30.078125 72.90625 
Q 51.265625 72.90625 61.171875 64.09375 
Q 71.09375 55.28125 71.09375 36.53125 
Q 71.09375 17.671875 61.125 8.828125 
Q 51.171875 0 30.078125 0 
L 9.8125 0 
z
" id="DejaVuSans-68"/>
     <path d="M 34.28125 27.484375 
Q 23.390625 27.484375 19.1875 25 
Q 14.984375 22.515625 14.984375 16.5 
Q 14.984375 11.71875 18.140625 8.90625 
Q 21.296875 6.109375 26.703125 6.109375 
Q 34.1875 6.109375 38.703125 11.40625 
Q 43.21875 16.703125 43.21875 25.484375 
L 43.21875 27.484375 
z
M 52.203125 31.203125 
L 52.203125 0 
L 43.21875 0 
L 43.21875 8.296875 
Q 40.140625 3.328125 35.546875 0.953125 
Q 30.953125 -1.421875 24.3125 -1.421875 
Q 15.921875 -1.421875 10.953125 3.296875 
Q 6 8.015625 6 15.921875 
Q 6 25.140625 12.171875 29.828125 
Q 18.359375 34.515625 30.609375 34.515625 
L 43.21875 34.515625 
L 43.21875 35.40625 
Q 43.21875 41.609375 39.140625 45 
Q 35.0625 48.390625 27.6875 48.390625 
Q 23 48.390625 18.546875 47.265625 
Q 14.109375 46.140625 10.015625 43.890625 
L 10.015625 52.203125 
Q 14.9375 54.109375 19.578125 55.046875 
Q 24.21875 56 28.609375 56 
Q 40.484375 56 46.34375 49.84375 
Q 52.203125 43.703125 52.203125 31.203125 
z
" id="DejaVuSans-97"/>
     <path d="M 18.3125 70.21875 
L 18.3125 54.6875 
L 36.8125 54.6875 
L 36.8125 47.703125 
L 18.3125 47.703125 
L 18.3125 18.015625 
Q 18.3125 11.328125 20.140625 9.421875 
Q 21.96875 7.515625 27.59375 7.515625 
L 36.8125 7.515625 
L 36.8125 0 
L 27.59375 0 
Q 17.1875 0 13.234375 3.875 
Q 9.28125 7.765625 9.28125 18.015625 
L 9.28125 47.703125 
L 2.6875 47.703125 
L 2.6875 54.6875 
L 9.28125 54.6875 
L 9.28125 70.21875 
z
" id="DejaVuSans-116"/>
     <path d="M 45.40625 27.984375 
Q 45.40625 37.75 41.375 43.109375 
Q 37.359375 48.484375 30.078125 48.484375 
Q 22.859375 48.484375 18.828125 43.109375 
Q 14.796875 37.75 14.796875 27.984375 
Q 14.796875 18.265625 18.828125 12.890625 
Q 22.859375 7.515625 30.078125 7.515625 
Q 37.359375 7.515625 41.375 12.890625 
Q 45.40625 18.265625 45.40625 27.984375 
z
M 54.390625 6.78125 
Q 54.390625 -7.171875 48.1875 -13.984375 
Q 42 -20.796875 29.203125 -20.796875 
Q 24.46875 -20.796875 20.265625 -20.09375 
Q 16.0625 -19.390625 12.109375 -17.921875 
L 12.109375 -9.1875 
Q 16.0625 -11.328125 19.921875 -12.34375 
Q 23.78125 -13.375 27.78125 -13.375 
Q 36.625 -13.375 41.015625 -8.765625 
Q 45.40625 -4.15625 45.40625 5.171875 
L 45.40625 9.625 
Q 42.625 4.78125 38.28125 2.390625 
Q 33.9375 0 27.875 0 
Q 17.828125 0 11.671875 7.65625 
Q 5.515625 15.328125 5.515625 27.984375 
Q 5.515625 40.671875 11.671875 48.328125 
Q 17.828125 56 27.875 56 
Q 33.9375 56 38.28125 53.609375 
Q 42.625 51.21875 45.40625 46.390625 
L 45.40625 54.6875 
L 54.390625 54.6875 
z
" id="DejaVuSans-103"/>
    </defs>
    <g transform="translate(172.890341 25.68)scale(0.09 -0.09)">
     <use xlink:href="#DejaVuSans-68"/>
     <use x="77.001953" xlink:href="#DejaVuSans-97"/>
     <use x="138.28125" xlink:href="#DejaVuSans-116"/>
     <use x="177.490234" xlink:href="#DejaVuSans-97"/>
     <use x="238.769531" xlink:href="#DejaVuSans-32"/>
     <use x="270.556641" xlink:href="#DejaVuSans-109"/>
     <use x="367.96875" xlink:href="#DejaVuSans-105"/>
     <use x="395.751953" xlink:href="#DejaVuSans-110"/>
     <use x="459.130859" xlink:href="#DejaVuSans-105"/>
     <use x="486.914062" xlink:href="#DejaVuSans-110"/>
     <use x="550.292969" xlink:href="#DejaVuSans-103"/>
    </g>
   </g>
  </g>
  <g id="axes_3">
   <g id="patch_20">
    <path d="M 261.381818 115.2 
L 329.018182 115.2 
L 329.018182 31.68 
L 261.381818 31.68 
z
" style="fill:#ffffff;"/>
   </g>
   <g id="patch_21">
    <path clip-path="url(#pf96430fa71)" d="M 264.456198 115.2 
L 277.400957 115.2 
L 277.400957 32.97456 
L 264.456198 32.97456 
z
" style="fill:#808080;stroke:#000000;stroke-linejoin:miter;"/>
   </g>
   <g id="patch_22">
    <path clip-path="url(#pf96430fa71)" d="M 280.637147 115.2 
L 293.581905 115.2 
L 293.581905 99.52608 
L 280.637147 99.52608 
z
" style="fill:#dda0dd;stroke:#000000;stroke-linejoin:miter;"/>
   </g>
   <g id="patch_23">
    <path clip-path="url(#pf96430fa71)" d="M 296.818095 115.2 
L 309.762853 115.2 
L 309.762853 50.45808 
L 296.818095 50.45808 
z
" style="fill:#eee8aa;stroke:#000000;stroke-linejoin:miter;"/>
   </g>
   <g id="patch_24">
    <path clip-path="url(#pf96430fa71)" d="M 312.999043 115.2 
L 325.943802 115.2 
L 325.943802 93.80496 
L 312.999043 93.80496 
z
" style="fill:#87ceeb;stroke:#000000;stroke-linejoin:miter;"/>
   </g>
   <g id="matplotlib.axis_5"/>
   <g id="matplotlib.axis_6">
    <g id="ytick_11">
     <g id="line2d_27">
      <g>
       <use style="stroke:#000000;stroke-width:0.8;" x="261.381818" xlink:href="#m62a07ed7c0" y="115.2"/>
      </g>
     </g>
     <g id="text_13">
      <!-- 0.0 -->
      <g transform="translate(238.478693 118.999219)scale(0.1 -0.1)">
       <use xlink:href="#DejaVuSans-48"/>
       <use x="63.623047" xlink:href="#DejaVuSans-46"/>
       <use x="95.410156" xlink:href="#DejaVuSans-48"/>
      </g>
     </g>
    </g>
    <g id="ytick_12">
     <g id="line2d_28">
      <g>
       <use style="stroke:#000000;stroke-width:0.8;" x="261.381818" xlink:href="#m62a07ed7c0" y="94.32"/>
      </g>
     </g>
     <g id="text_14">
      <!-- 0.3 -->
      <g transform="translate(238.478693 98.119219)scale(0.1 -0.1)">
       <use xlink:href="#DejaVuSans-48"/>
       <use x="63.623047" xlink:href="#DejaVuSans-46"/>
       <use x="95.410156" xlink:href="#DejaVuSans-51"/>
      </g>
     </g>
    </g>
    <g id="ytick_13">
     <g id="line2d_29">
      <g>
       <use style="stroke:#000000;stroke-width:0.8;" x="261.381818" xlink:href="#m62a07ed7c0" y="73.44"/>
      </g>
     </g>
     <g id="text_15">
      <!-- 0.6 -->
      <g transform="translate(238.478693 77.239219)scale(0.1 -0.1)">
       <use xlink:href="#DejaVuSans-48"/>
       <use x="63.623047" xlink:href="#DejaVuSans-46"/>
       <use x="95.410156" xlink:href="#DejaVuSans-54"/>
      </g>
     </g>
    </g>
    <g id="ytick_14">
     <g id="line2d_30">
      <g>
       <use style="stroke:#000000;stroke-width:0.8;" x="261.381818" xlink:href="#m62a07ed7c0" y="52.56"/>
      </g>
     </g>
     <g id="text_16">
      <!-- 0.9 -->
      <defs>
       <path d="M 10.984375 1.515625 
L 10.984375 10.5 
Q 14.703125 8.734375 18.5 7.8125 
Q 22.3125 6.890625 25.984375 6.890625 
Q 35.75 6.890625 40.890625 13.453125 
Q 46.046875 20.015625 46.78125 33.40625 
Q 43.953125 29.203125 39.59375 26.953125 
Q 35.25 24.703125 29.984375 24.703125 
Q 19.046875 24.703125 12.671875 31.3125 
Q 6.296875 37.9375 6.296875 49.421875 
Q 6.296875 60.640625 12.9375 67.421875 
Q 19.578125 74.21875 30.609375 74.21875 
Q 43.265625 74.21875 49.921875 64.515625 
Q 56.59375 54.828125 56.59375 36.375 
Q 56.59375 19.140625 48.40625 8.859375 
Q 40.234375 -1.421875 26.421875 -1.421875 
Q 22.703125 -1.421875 18.890625 -0.6875 
Q 15.09375 0.046875 10.984375 1.515625 
z
M 30.609375 32.421875 
Q 37.25 32.421875 41.125 36.953125 
Q 45.015625 41.5 45.015625 49.421875 
Q 45.015625 57.28125 41.125 61.84375 
Q 37.25 66.40625 30.609375 66.40625 
Q 23.96875 66.40625 20.09375 61.84375 
Q 16.21875 57.28125 16.21875 49.421875 
Q 16.21875 41.5 20.09375 36.953125 
Q 23.96875 32.421875 30.609375 32.421875 
z
" id="DejaVuSans-57"/>
      </defs>
      <g transform="translate(238.478693 56.359219)scale(0.1 -0.1)">
       <use xlink:href="#DejaVuSans-48"/>
       <use x="63.623047" xlink:href="#DejaVuSans-46"/>
       <use x="95.410156" xlink:href="#DejaVuSans-57"/>
      </g>
     </g>
    </g>
    <g id="ytick_15">
     <g id="line2d_31">
      <g>
       <use style="stroke:#000000;stroke-width:0.8;" x="261.381818" xlink:href="#m62a07ed7c0" y="31.68"/>
      </g>
     </g>
     <g id="text_17">
      <!-- 1.2 -->
      <g transform="translate(238.478693 35.479219)scale(0.1 -0.1)">
       <use xlink:href="#DejaVuSans-49"/>
       <use x="63.623047" xlink:href="#DejaVuSans-46"/>
       <use x="95.410156" xlink:href="#DejaVuSans-50"/>
      </g>
     </g>
    </g>
   </g>
   <g id="LineCollection_9">
    <path clip-path="url(#pf96430fa71)" d="M 270.928578 34.082578 
L 270.928578 31.866542 
" style="fill:none;stroke:#696969;stroke-width:1.5;"/>
   </g>
   <g id="LineCollection_10">
    <path clip-path="url(#pf96430fa71)" d="M 287.109526 99.734415 
L 287.109526 99.317745 
" style="fill:none;stroke:#696969;stroke-width:1.5;"/>
   </g>
   <g id="LineCollection_11">
    <path clip-path="url(#pf96430fa71)" d="M 303.290474 55.189529 
L 303.290474 45.726631 
" style="fill:none;stroke:#696969;stroke-width:1.5;"/>
   </g>
   <g id="LineCollection_12">
    <path clip-path="url(#pf96430fa71)" d="M 319.471422 93.934049 
L 319.471422 93.675871 
" style="fill:none;stroke:#696969;stroke-width:1.5;"/>
   </g>
   <g id="line2d_32">
    <g clip-path="url(#pf96430fa71)">
     <use style="fill:#696969;stroke:#696969;" x="270.928578" xlink:href="#ma7f889c3ba" y="34.082578"/>
    </g>
   </g>
   <g id="line2d_33">
    <g clip-path="url(#pf96430fa71)">
     <use style="fill:#696969;stroke:#696969;" x="270.928578" xlink:href="#ma7f889c3ba" y="31.866542"/>
    </g>
   </g>
   <g id="line2d_34">
    <g clip-path="url(#pf96430fa71)">
     <use style="fill:#696969;stroke:#696969;" x="287.109526" xlink:href="#ma7f889c3ba" y="99.734415"/>
    </g>
   </g>
   <g id="line2d_35">
    <g clip-path="url(#pf96430fa71)">
     <use style="fill:#696969;stroke:#696969;" x="287.109526" xlink:href="#ma7f889c3ba" y="99.317745"/>
    </g>
   </g>
   <g id="line2d_36">
    <g clip-path="url(#pf96430fa71)">
     <use style="fill:#696969;stroke:#696969;" x="303.290474" xlink:href="#ma7f889c3ba" y="55.189529"/>
    </g>
   </g>
   <g id="line2d_37">
    <g clip-path="url(#pf96430fa71)">
     <use style="fill:#696969;stroke:#696969;" x="303.290474" xlink:href="#ma7f889c3ba" y="45.726631"/>
    </g>
   </g>
   <g id="line2d_38">
    <g clip-path="url(#pf96430fa71)">
     <use style="fill:#696969;stroke:#696969;" x="319.471422" xlink:href="#ma7f889c3ba" y="93.934049"/>
    </g>
   </g>
   <g id="line2d_39">
    <g clip-path="url(#pf96430fa71)">
     <use style="fill:#696969;stroke:#696969;" x="319.471422" xlink:href="#ma7f889c3ba" y="93.675871"/>
    </g>
   </g>
   <g id="patch_25">
    <path d="M 261.381818 115.2 
L 261.381818 31.68 
" style="fill:none;stroke:#000000;stroke-linecap:square;stroke-linejoin:miter;stroke-width:0.8;"/>
   </g>
   <g id="patch_26">
    <path d="M 329.018182 115.2 
L 329.018182 31.68 
" style="fill:none;stroke:#000000;stroke-linecap:square;stroke-linejoin:miter;stroke-width:0.8;"/>
   </g>
   <g id="patch_27">
    <path d="M 261.381818 115.2 
L 329.018182 115.2 
" style="fill:none;stroke:#000000;stroke-linecap:square;stroke-linejoin:miter;stroke-width:0.8;"/>
   </g>
   <g id="patch_28">
    <path d="M 261.381818 31.68 
L 329.018182 31.68 
" style="fill:none;stroke:#000000;stroke-linecap:square;stroke-linejoin:miter;stroke-width:0.8;"/>
   </g>
   <g id="text_18">
    <!-- Crash statistics -->
    <defs>
     <path d="M 41.109375 46.296875 
Q 39.59375 47.171875 37.8125 47.578125 
Q 36.03125 48 33.890625 48 
Q 26.265625 48 22.1875 43.046875 
Q 18.109375 38.09375 18.109375 28.8125 
L 18.109375 0 
L 9.078125 0 
L 9.078125 54.6875 
L 18.109375 54.6875 
L 18.109375 46.1875 
Q 20.953125 51.171875 25.484375 53.578125 
Q 30.03125 56 36.53125 56 
Q 37.453125 56 38.578125 55.875 
Q 39.703125 55.765625 41.0625 55.515625 
z
" id="DejaVuSans-114"/>
     <path d="M 54.890625 33.015625 
L 54.890625 0 
L 45.90625 0 
L 45.90625 32.71875 
Q 45.90625 40.484375 42.875 44.328125 
Q 39.84375 48.1875 33.796875 48.1875 
Q 26.515625 48.1875 22.3125 43.546875 
Q 18.109375 38.921875 18.109375 30.90625 
L 18.109375 0 
L 9.078125 0 
L 9.078125 75.984375 
L 18.109375 75.984375 
L 18.109375 46.1875 
Q 21.34375 51.125 25.703125 53.5625 
Q 30.078125 56 35.796875 56 
Q 45.21875 56 50.046875 50.171875 
Q 54.890625 44.34375 54.890625 33.015625 
z
" id="DejaVuSans-104"/>
    </defs>
    <g transform="translate(260.766563 25.68)scale(0.09 -0.09)">
     <use xlink:href="#DejaVuSans-67"/>
     <use x="69.824219" xlink:href="#DejaVuSans-114"/>
     <use x="110.9375" xlink:href="#DejaVuSans-97"/>
     <use x="172.216797" xlink:href="#DejaVuSans-115"/>
     <use x="224.316406" xlink:href="#DejaVuSans-104"/>
     <use x="287.695312" xlink:href="#DejaVuSans-32"/>
     <use x="319.482422" xlink:href="#DejaVuSans-115"/>
     <use x="371.582031" xlink:href="#DejaVuSans-116"/>
     <use x="410.791016" xlink:href="#DejaVuSans-97"/>
     <use x="472.070312" xlink:href="#DejaVuSans-116"/>
     <use x="511.279297" xlink:href="#DejaVuSans-105"/>
     <use x="539.0625" xlink:href="#DejaVuSans-115"/>
     <use x="591.162109" xlink:href="#DejaVuSans-116"/>
     <use x="630.371094" xlink:href="#DejaVuSans-105"/>
     <use x="658.154297" xlink:href="#DejaVuSans-99"/>
     <use x="713.134766" xlink:href="#DejaVuSans-115"/>
    </g>
   </g>
  </g>
  <g id="axes_4">
   <g id="patch_29">
    <path d="M 356.072727 115.2 
L 423.709091 115.2 
L 423.709091 31.68 
L 356.072727 31.68 
z
" style="fill:#ffffff;"/>
   </g>
   <g id="patch_30">
    <path clip-path="url(#pb7d9d5fcb1)" d="M 359.147107 115.2 
L 372.091866 115.2 
L 372.091866 85.469664 
L 359.147107 85.469664 
z
" style="fill:#808080;stroke:#000000;stroke-linejoin:miter;"/>
   </g>
   <g id="patch_31">
    <path clip-path="url(#pb7d9d5fcb1)" d="M 375.328056 115.2 
L 388.272814 115.2 
L 388.272814 107.716608 
L 375.328056 107.716608 
z
" style="fill:#dda0dd;stroke:#000000;stroke-linejoin:miter;"/>
   </g>
   <g id="patch_32">
    <path clip-path="url(#pb7d9d5fcb1)" d="M 391.509004 115.2 
L 404.453763 115.2 
L 404.453763 47.128416 
L 391.509004 47.128416 
z
" style="fill:#eee8aa;stroke:#000000;stroke-linejoin:miter;"/>
   </g>
   <g id="patch_33">
    <path clip-path="url(#pb7d9d5fcb1)" d="M 407.689952 115.2 
L 420.634711 115.2 
L 420.634711 83.871648 
L 407.689952 83.871648 
z
" style="fill:#87ceeb;stroke:#000000;stroke-linejoin:miter;"/>
   </g>
   <g id="matplotlib.axis_7"/>
   <g id="matplotlib.axis_8">
    <g id="ytick_16">
     <g id="line2d_40">
      <g>
       <use style="stroke:#000000;stroke-width:0.8;" x="356.072727" xlink:href="#m62a07ed7c0" y="115.2"/>
      </g>
     </g>
     <g id="text_19">
      <!-- 0.0 -->
      <g transform="translate(333.169602 118.999219)scale(0.1 -0.1)">
       <use xlink:href="#DejaVuSans-48"/>
       <use x="63.623047" xlink:href="#DejaVuSans-46"/>
       <use x="95.410156" xlink:href="#DejaVuSans-48"/>
      </g>
     </g>
    </g>
    <g id="ytick_17">
     <g id="line2d_41">
      <g>
       <use style="stroke:#000000;stroke-width:0.8;" x="356.072727" xlink:href="#m62a07ed7c0" y="94.32"/>
      </g>
     </g>
     <g id="text_20">
      <!-- 1.5 -->
      <g transform="translate(333.169602 98.119219)scale(0.1 -0.1)">
       <use xlink:href="#DejaVuSans-49"/>
       <use x="63.623047" xlink:href="#DejaVuSans-46"/>
       <use x="95.410156" xlink:href="#DejaVuSans-53"/>
      </g>
     </g>
    </g>
    <g id="ytick_18">
     <g id="line2d_42">
      <g>
       <use style="stroke:#000000;stroke-width:0.8;" x="356.072727" xlink:href="#m62a07ed7c0" y="73.44"/>
      </g>
     </g>
     <g id="text_21">
      <!-- 3.0 -->
      <g transform="translate(333.169602 77.239219)scale(0.1 -0.1)">
       <use xlink:href="#DejaVuSans-51"/>
       <use x="63.623047" xlink:href="#DejaVuSans-46"/>
       <use x="95.410156" xlink:href="#DejaVuSans-48"/>
      </g>
     </g>
    </g>
    <g id="ytick_19">
     <g id="line2d_43">
      <g>
       <use style="stroke:#000000;stroke-width:0.8;" x="356.072727" xlink:href="#m62a07ed7c0" y="52.56"/>
      </g>
     </g>
     <g id="text_22">
      <!-- 4.5 -->
      <g transform="translate(333.169602 56.359219)scale(0.1 -0.1)">
       <use xlink:href="#DejaVuSans-52"/>
       <use x="63.623047" xlink:href="#DejaVuSans-46"/>
       <use x="95.410156" xlink:href="#DejaVuSans-53"/>
      </g>
     </g>
    </g>
    <g id="ytick_20">
     <g id="line2d_44">
      <g>
       <use style="stroke:#000000;stroke-width:0.8;" x="356.072727" xlink:href="#m62a07ed7c0" y="31.68"/>
      </g>
     </g>
     <g id="text_23">
      <!-- 6.0 -->
      <g transform="translate(333.169602 35.479219)scale(0.1 -0.1)">
       <use xlink:href="#DejaVuSans-54"/>
       <use x="63.623047" xlink:href="#DejaVuSans-46"/>
       <use x="95.410156" xlink:href="#DejaVuSans-48"/>
      </g>
     </g>
    </g>
   </g>
   <g id="LineCollection_13">
    <path clip-path="url(#pb7d9d5fcb1)" d="M 365.619487 87.427558 
L 365.619487 83.51177 
" style="fill:none;stroke:#696969;stroke-width:1.5;"/>
   </g>
   <g id="LineCollection_14">
    <path clip-path="url(#pb7d9d5fcb1)" d="M 381.800435 107.899082 
L 381.800435 107.534134 
" style="fill:none;stroke:#696969;stroke-width:1.5;"/>
   </g>
   <g id="LineCollection_15">
    <path clip-path="url(#pb7d9d5fcb1)" d="M 397.981383 54.979639 
L 397.981383 39.277193 
" style="fill:none;stroke:#696969;stroke-width:1.5;"/>
   </g>
   <g id="LineCollection_16">
    <path clip-path="url(#pb7d9d5fcb1)" d="M 414.162331 84.059769 
L 414.162331 83.683527 
" style="fill:none;stroke:#696969;stroke-width:1.5;"/>
   </g>
   <g id="line2d_45">
    <g clip-path="url(#pb7d9d5fcb1)">
     <use style="fill:#696969;stroke:#696969;" x="365.619487" xlink:href="#ma7f889c3ba" y="87.427558"/>
    </g>
   </g>
   <g id="line2d_46">
    <g clip-path="url(#pb7d9d5fcb1)">
     <use style="fill:#696969;stroke:#696969;" x="365.619487" xlink:href="#ma7f889c3ba" y="83.51177"/>
    </g>
   </g>
   <g id="line2d_47">
    <g clip-path="url(#pb7d9d5fcb1)">
     <use style="fill:#696969;stroke:#696969;" x="381.800435" xlink:href="#ma7f889c3ba" y="107.899082"/>
    </g>
   </g>
   <g id="line2d_48">
    <g clip-path="url(#pb7d9d5fcb1)">
     <use style="fill:#696969;stroke:#696969;" x="381.800435" xlink:href="#ma7f889c3ba" y="107.534134"/>
    </g>
   </g>
   <g id="line2d_49">
    <g clip-path="url(#pb7d9d5fcb1)">
     <use style="fill:#696969;stroke:#696969;" x="397.981383" xlink:href="#ma7f889c3ba" y="54.979639"/>
    </g>
   </g>
   <g id="line2d_50">
    <g clip-path="url(#pb7d9d5fcb1)">
     <use style="fill:#696969;stroke:#696969;" x="397.981383" xlink:href="#ma7f889c3ba" y="39.277193"/>
    </g>
   </g>
   <g id="line2d_51">
    <g clip-path="url(#pb7d9d5fcb1)">
     <use style="fill:#696969;stroke:#696969;" x="414.162331" xlink:href="#ma7f889c3ba" y="84.059769"/>
    </g>
   </g>
   <g id="line2d_52">
    <g clip-path="url(#pb7d9d5fcb1)">
     <use style="fill:#696969;stroke:#696969;" x="414.162331" xlink:href="#ma7f889c3ba" y="83.683527"/>
    </g>
   </g>
   <g id="patch_34">
    <path d="M 356.072727 115.2 
L 356.072727 31.68 
" style="fill:none;stroke:#000000;stroke-linecap:square;stroke-linejoin:miter;stroke-width:0.8;"/>
   </g>
   <g id="patch_35">
    <path d="M 423.709091 115.2 
L 423.709091 31.68 
" style="fill:none;stroke:#000000;stroke-linecap:square;stroke-linejoin:miter;stroke-width:0.8;"/>
   </g>
   <g id="patch_36">
    <path d="M 356.072727 115.2 
L 423.709091 115.2 
" style="fill:none;stroke:#000000;stroke-linecap:square;stroke-linejoin:miter;stroke-width:0.8;"/>
   </g>
   <g id="patch_37">
    <path d="M 356.072727 31.68 
L 423.709091 31.68 
" style="fill:none;stroke:#000000;stroke-linecap:square;stroke-linejoin:miter;stroke-width:0.8;"/>
   </g>
   <g id="text_24">
    <!-- Time use -->
    <defs>
     <path d="M -0.296875 72.90625 
L 61.375 72.90625 
L 61.375 64.59375 
L 35.5 64.59375 
L 35.5 0 
L 25.59375 0 
L 25.59375 64.59375 
L -0.296875 64.59375 
z
" id="DejaVuSans-84"/>
    </defs>
    <g transform="translate(369.347003 25.68)scale(0.09 -0.09)">
     <use xlink:href="#DejaVuSans-84"/>
     <use x="61.037109" xlink:href="#DejaVuSans-105"/>
     <use x="88.820312" xlink:href="#DejaVuSans-109"/>
     <use x="186.232422" xlink:href="#DejaVuSans-101"/>
     <use x="247.755859" xlink:href="#DejaVuSans-32"/>
     <use x="279.542969" xlink:href="#DejaVuSans-117"/>
     <use x="342.921875" xlink:href="#DejaVuSans-115"/>
     <use x="395.021484" xlink:href="#DejaVuSans-101"/>
    </g>
   </g>
  </g>
  <g id="axes_5">
   <g id="patch_38">
    <path d="M 450.763636 115.2 
L 518.4 115.2 
L 518.4 31.68 
L 450.763636 31.68 
z
" style="fill:#ffffff;"/>
   </g>
   <g id="patch_39">
    <path clip-path="url(#p3f6d3c8fc2)" d="M 453.838017 115.2 
L 466.782775 115.2 
L 466.782775 35.980946 
L 453.838017 35.980946 
z
" style="fill:#808080;stroke:#000000;stroke-linejoin:miter;"/>
   </g>
   <g id="patch_40">
    <path clip-path="url(#p3f6d3c8fc2)" d="M 470.018965 115.2 
L 482.963723 115.2 
L 482.963723 85.482582 
L 470.018965 85.482582 
z
" style="fill:#dda0dd;stroke:#000000;stroke-linejoin:miter;"/>
   </g>
   <g id="patch_41">
    <path clip-path="url(#p3f6d3c8fc2)" d="M 486.199913 115.2 
L 499.144672 115.2 
L 499.144672 89.036859 
L 486.199913 89.036859 
z
" style="fill:#eee8aa;stroke:#000000;stroke-linejoin:miter;"/>
   </g>
   <g id="patch_42">
    <path clip-path="url(#p3f6d3c8fc2)" d="M 502.380861 115.2 
L 515.32562 115.2 
L 515.32562 107.739325 
L 502.380861 107.739325 
z
" style="fill:#87ceeb;stroke:#000000;stroke-linejoin:miter;"/>
   </g>
   <g id="matplotlib.axis_9"/>
   <g id="matplotlib.axis_10">
    <g id="ytick_21">
     <g id="line2d_53">
      <g>
       <use style="stroke:#000000;stroke-width:0.8;" x="450.763636" xlink:href="#m62a07ed7c0" y="115.2"/>
      </g>
     </g>
     <g id="text_25">
      <!-- 0 -->
      <g transform="translate(437.401136 118.999219)scale(0.1 -0.1)">
       <use xlink:href="#DejaVuSans-48"/>
      </g>
     </g>
    </g>
    <g id="ytick_22">
     <g id="line2d_54">
      <g>
       <use style="stroke:#000000;stroke-width:0.8;" x="450.763636" xlink:href="#m62a07ed7c0" y="98.496"/>
      </g>
     </g>
     <g id="text_26">
      <!-- 10 -->
      <g transform="translate(431.038636 102.295219)scale(0.1 -0.1)">
       <use xlink:href="#DejaVuSans-49"/>
       <use x="63.623047" xlink:href="#DejaVuSans-48"/>
      </g>
     </g>
    </g>
    <g id="ytick_23">
     <g id="line2d_55">
      <g>
       <use style="stroke:#000000;stroke-width:0.8;" x="450.763636" xlink:href="#m62a07ed7c0" y="81.792"/>
      </g>
     </g>
     <g id="text_27">
      <!-- 20 -->
      <g transform="translate(431.038636 85.591219)scale(0.1 -0.1)">
       <use xlink:href="#DejaVuSans-50"/>
       <use x="63.623047" xlink:href="#DejaVuSans-48"/>
      </g>
     </g>
    </g>
    <g id="ytick_24">
     <g id="line2d_56">
      <g>
       <use style="stroke:#000000;stroke-width:0.8;" x="450.763636" xlink:href="#m62a07ed7c0" y="65.088"/>
      </g>
     </g>
     <g id="text_28">
      <!-- 30 -->
      <g transform="translate(431.038636 68.887219)scale(0.1 -0.1)">
       <use xlink:href="#DejaVuSans-51"/>
       <use x="63.623047" xlink:href="#DejaVuSans-48"/>
      </g>
     </g>
    </g>
    <g id="ytick_25">
     <g id="line2d_57">
      <g>
       <use style="stroke:#000000;stroke-width:0.8;" x="450.763636" xlink:href="#m62a07ed7c0" y="48.384"/>
      </g>
     </g>
     <g id="text_29">
      <!-- 40 -->
      <g transform="translate(431.038636 52.183219)scale(0.1 -0.1)">
       <use xlink:href="#DejaVuSans-52"/>
       <use x="63.623047" xlink:href="#DejaVuSans-48"/>
      </g>
     </g>
    </g>
    <g id="ytick_26">
     <g id="line2d_58">
      <g>
       <use style="stroke:#000000;stroke-width:0.8;" x="450.763636" xlink:href="#m62a07ed7c0" y="31.68"/>
      </g>
     </g>
     <g id="text_30">
      <!-- 50 -->
      <g transform="translate(431.038636 35.479219)scale(0.1 -0.1)">
       <use xlink:href="#DejaVuSans-53"/>
       <use x="63.623047" xlink:href="#DejaVuSans-48"/>
      </g>
     </g>
    </g>
   </g>
   <g id="LineCollection_17">
    <path clip-path="url(#p3f6d3c8fc2)" d="M 460.310396 37.448453 
L 460.310396 34.513438 
" style="fill:none;stroke:#696969;stroke-width:1.5;"/>
   </g>
   <g id="LineCollection_18">
    <path clip-path="url(#p3f6d3c8fc2)" d="M 476.491344 86.196686 
L 476.491344 84.768478 
" style="fill:none;stroke:#696969;stroke-width:1.5;"/>
   </g>
   <g id="LineCollection_19">
    <path clip-path="url(#p3f6d3c8fc2)" d="M 492.672292 93.619728 
L 492.672292 84.453989 
" style="fill:none;stroke:#696969;stroke-width:1.5;"/>
   </g>
   <g id="LineCollection_20">
    <path clip-path="url(#p3f6d3c8fc2)" d="M 508.853241 107.904938 
L 508.853241 107.573713 
" style="fill:none;stroke:#696969;stroke-width:1.5;"/>
   </g>
   <g id="line2d_59">
    <g clip-path="url(#p3f6d3c8fc2)">
     <use style="fill:#696969;stroke:#696969;" x="460.310396" xlink:href="#ma7f889c3ba" y="37.448453"/>
    </g>
   </g>
   <g id="line2d_60">
    <g clip-path="url(#p3f6d3c8fc2)">
     <use style="fill:#696969;stroke:#696969;" x="460.310396" xlink:href="#ma7f889c3ba" y="34.513438"/>
    </g>
   </g>
   <g id="line2d_61">
    <g clip-path="url(#p3f6d3c8fc2)">
     <use style="fill:#696969;stroke:#696969;" x="476.491344" xlink:href="#ma7f889c3ba" y="86.196686"/>
    </g>
   </g>
   <g id="line2d_62">
    <g clip-path="url(#p3f6d3c8fc2)">
     <use style="fill:#696969;stroke:#696969;" x="476.491344" xlink:href="#ma7f889c3ba" y="84.768478"/>
    </g>
   </g>
   <g id="line2d_63">
    <g clip-path="url(#p3f6d3c8fc2)">
     <use style="fill:#696969;stroke:#696969;" x="492.672292" xlink:href="#ma7f889c3ba" y="93.619728"/>
    </g>
   </g>
   <g id="line2d_64">
    <g clip-path="url(#p3f6d3c8fc2)">
     <use style="fill:#696969;stroke:#696969;" x="492.672292" xlink:href="#ma7f889c3ba" y="84.453989"/>
    </g>
   </g>
   <g id="line2d_65">
    <g clip-path="url(#p3f6d3c8fc2)">
     <use style="fill:#696969;stroke:#696969;" x="508.853241" xlink:href="#ma7f889c3ba" y="107.904938"/>
    </g>
   </g>
   <g id="line2d_66">
    <g clip-path="url(#p3f6d3c8fc2)">
     <use style="fill:#696969;stroke:#696969;" x="508.853241" xlink:href="#ma7f889c3ba" y="107.573713"/>
    </g>
   </g>
   <g id="patch_43">
    <path d="M 450.763636 115.2 
L 450.763636 31.68 
" style="fill:none;stroke:#000000;stroke-linecap:square;stroke-linejoin:miter;stroke-width:0.8;"/>
   </g>
   <g id="patch_44">
    <path d="M 518.4 115.2 
L 518.4 31.68 
" style="fill:none;stroke:#000000;stroke-linecap:square;stroke-linejoin:miter;stroke-width:0.8;"/>
   </g>
   <g id="patch_45">
    <path d="M 450.763636 115.2 
L 518.4 115.2 
" style="fill:none;stroke:#000000;stroke-linecap:square;stroke-linejoin:miter;stroke-width:0.8;"/>
   </g>
   <g id="patch_46">
    <path d="M 450.763636 31.68 
L 518.4 31.68 
" style="fill:none;stroke:#000000;stroke-linecap:square;stroke-linejoin:miter;stroke-width:0.8;"/>
   </g>
   <g id="text_31">
    <!-- Health interviews -->
    <defs>
     <path d="M 9.8125 72.90625 
L 19.671875 72.90625 
L 19.671875 43.015625 
L 55.515625 43.015625 
L 55.515625 72.90625 
L 65.375 72.90625 
L 65.375 0 
L 55.515625 0 
L 55.515625 34.71875 
L 19.671875 34.71875 
L 19.671875 0 
L 9.8125 0 
z
" id="DejaVuSans-72"/>
     <path d="M 9.421875 75.984375 
L 18.40625 75.984375 
L 18.40625 0 
L 9.421875 0 
z
" id="DejaVuSans-108"/>
     <path d="M 2.984375 54.6875 
L 12.5 54.6875 
L 29.59375 8.796875 
L 46.6875 54.6875 
L 56.203125 54.6875 
L 35.6875 0 
L 23.484375 0 
z
" id="DejaVuSans-118"/>
     <path d="M 4.203125 54.6875 
L 13.1875 54.6875 
L 24.421875 12.015625 
L 35.59375 54.6875 
L 46.1875 54.6875 
L 57.421875 12.015625 
L 68.609375 54.6875 
L 77.59375 54.6875 
L 63.28125 0 
L 52.6875 0 
L 40.921875 44.828125 
L 29.109375 0 
L 18.5 0 
z
" id="DejaVuSans-119"/>
    </defs>
    <g transform="translate(445.182912 25.68)scale(0.09 -0.09)">
     <use xlink:href="#DejaVuSans-72"/>
     <use x="75.195312" xlink:href="#DejaVuSans-101"/>
     <use x="136.71875" xlink:href="#DejaVuSans-97"/>
     <use x="197.998047" xlink:href="#DejaVuSans-108"/>
     <use x="225.78125" xlink:href="#DejaVuSans-116"/>
     <use x="264.990234" xlink:href="#DejaVuSans-104"/>
     <use x="328.369141" xlink:href="#DejaVuSans-32"/>
     <use x="360.15625" xlink:href="#DejaVuSans-105"/>
     <use x="387.939453" xlink:href="#DejaVuSans-110"/>
     <use x="451.318359" xlink:href="#DejaVuSans-116"/>
     <use x="490.527344" xlink:href="#DejaVuSans-101"/>
     <use x="552.050781" xlink:href="#DejaVuSans-114"/>
     <use x="593.164062" xlink:href="#DejaVuSans-118"/>
     <use x="652.34375" xlink:href="#DejaVuSans-105"/>
     <use x="680.126953" xlink:href="#DejaVuSans-101"/>
     <use x="741.650391" xlink:href="#DejaVuSans-119"/>
     <use x="823.4375" xlink:href="#DejaVuSans-115"/>
    </g>
   </g>
  </g>
  <g id="text_32">
   <!-- Time (s) -->
   <defs>
    <path d="M 31 75.875 
Q 24.46875 64.65625 21.28125 53.65625 
Q 18.109375 42.671875 18.109375 31.390625 
Q 18.109375 20.125 21.3125 9.0625 
Q 24.515625 -2 31 -13.1875 
L 23.1875 -13.1875 
Q 15.875 -1.703125 12.234375 9.375 
Q 8.59375 20.453125 8.59375 31.390625 
Q 8.59375 42.28125 12.203125 53.3125 
Q 15.828125 64.359375 23.1875 75.875 
z
" id="DejaVuSans-40"/>
    <path d="M 8.015625 75.875 
L 15.828125 75.875 
Q 23.140625 64.359375 26.78125 53.3125 
Q 30.421875 42.28125 30.421875 31.390625 
Q 30.421875 20.453125 26.78125 9.375 
Q 23.140625 -1.703125 15.828125 -13.1875 
L 8.015625 -13.1875 
Q 14.5 -2 17.703125 9.0625 
Q 20.90625 20.125 20.90625 31.390625 
Q 20.90625 42.671875 17.703125 53.65625 
Q 14.5 64.65625 8.015625 75.875 
z
" id="DejaVuSans-41"/>
   </defs>
   <g transform="translate(42.158438 92.482812)rotate(-90)scale(0.1 -0.1)">
    <use xlink:href="#DejaVuSans-84"/>
    <use x="61.037109" xlink:href="#DejaVuSans-105"/>
    <use x="88.820312" xlink:href="#DejaVuSans-109"/>
    <use x="186.232422" xlink:href="#DejaVuSans-101"/>
    <use x="247.755859" xlink:href="#DejaVuSans-32"/>
    <use x="279.542969" xlink:href="#DejaVuSans-40"/>
    <use x="318.556641" xlink:href="#DejaVuSans-115"/>
    <use x="370.65625" xlink:href="#DejaVuSans-41"/>
   </g>
  </g>
  <g id="text_33">
   <!-- Distinguishability -->
   <defs>
    <path d="M 48.6875 27.296875 
Q 48.6875 37.203125 44.609375 42.84375 
Q 40.53125 48.484375 33.40625 48.484375 
Q 26.265625 48.484375 22.1875 42.84375 
Q 18.109375 37.203125 18.109375 27.296875 
Q 18.109375 17.390625 22.1875 11.75 
Q 26.265625 6.109375 33.40625 6.109375 
Q 40.53125 6.109375 44.609375 11.75 
Q 48.6875 17.390625 48.6875 27.296875 
z
M 18.109375 46.390625 
Q 20.953125 51.265625 25.265625 53.625 
Q 29.59375 56 35.59375 56 
Q 45.5625 56 51.78125 48.09375 
Q 58.015625 40.1875 58.015625 27.296875 
Q 58.015625 14.40625 51.78125 6.484375 
Q 45.5625 -1.421875 35.59375 -1.421875 
Q 29.59375 -1.421875 25.265625 0.953125 
Q 20.953125 3.328125 18.109375 8.203125 
L 18.109375 0 
L 9.078125 0 
L 9.078125 75.984375 
L 18.109375 75.984375 
z
" id="DejaVuSans-98"/>
    <path d="M 32.171875 -5.078125 
Q 28.375 -14.84375 24.75 -17.8125 
Q 21.140625 -20.796875 15.09375 -20.796875 
L 7.90625 -20.796875 
L 7.90625 -13.28125 
L 13.1875 -13.28125 
Q 16.890625 -13.28125 18.9375 -11.515625 
Q 21 -9.765625 23.484375 -3.21875 
L 25.09375 0.875 
L 2.984375 54.6875 
L 12.5 54.6875 
L 29.59375 11.921875 
L 46.6875 54.6875 
L 56.203125 54.6875 
z
" id="DejaVuSans-121"/>
   </defs>
   <g transform="translate(236.169375 11.998125)scale(0.12 -0.12)">
    <use xlink:href="#DejaVuSans-68"/>
    <use x="77.001953" xlink:href="#DejaVuSans-105"/>
    <use x="104.785156" xlink:href="#DejaVuSans-115"/>
    <use x="156.884766" xlink:href="#DejaVuSans-116"/>
    <use x="196.09375" xlink:href="#DejaVuSans-105"/>
    <use x="223.876953" xlink:href="#DejaVuSans-110"/>
    <use x="287.255859" xlink:href="#DejaVuSans-103"/>
    <use x="350.732422" xlink:href="#DejaVuSans-117"/>
    <use x="414.111328" xlink:href="#DejaVuSans-105"/>
    <use x="441.894531" xlink:href="#DejaVuSans-115"/>
    <use x="493.994141" xlink:href="#DejaVuSans-104"/>
    <use x="557.373047" xlink:href="#DejaVuSans-97"/>
    <use x="618.652344" xlink:href="#DejaVuSans-98"/>
    <use x="682.128906" xlink:href="#DejaVuSans-105"/>
    <use x="709.912109" xlink:href="#DejaVuSans-108"/>
    <use x="737.695312" xlink:href="#DejaVuSans-105"/>
    <use x="765.478516" xlink:href="#DejaVuSans-116"/>
    <use x="804.6875" xlink:href="#DejaVuSans-121"/>
   </g>
  </g>
  <g id="legend_1">
   <g id="patch_47">
    <path d="M 108.7 139 
L 467.3 139 
Q 469.3 139 469.3 137 
L 469.3 123.321875 
Q 469.3 121.321875 467.3 121.321875 
L 108.7 121.321875 
Q 106.7 121.321875 106.7 123.321875 
L 106.7 137 
Q 106.7 139 108.7 139 
z
" style="fill:#ffffff;opacity:0.8;stroke:#cccccc;stroke-linejoin:miter;"/>
   </g>
   <g id="patch_48">
    <path d="M 110.7 132.920312 
L 130.7 132.920312 
L 130.7 125.920312 
L 110.7 125.920312 
z
" style="fill:#808080;stroke:#000000;stroke-linejoin:miter;"/>
   </g>
   <g id="text_34">
    <!-- Optimal -->
    <defs>
     <path d="M 39.40625 66.21875 
Q 28.65625 66.21875 22.328125 58.203125 
Q 16.015625 50.203125 16.015625 36.375 
Q 16.015625 22.609375 22.328125 14.59375 
Q 28.65625 6.59375 39.40625 6.59375 
Q 50.140625 6.59375 56.421875 14.59375 
Q 62.703125 22.609375 62.703125 36.375 
Q 62.703125 50.203125 56.421875 58.203125 
Q 50.140625 66.21875 39.40625 66.21875 
z
M 39.40625 74.21875 
Q 54.734375 74.21875 63.90625 63.9375 
Q 73.09375 53.65625 73.09375 36.375 
Q 73.09375 19.140625 63.90625 8.859375 
Q 54.734375 -1.421875 39.40625 -1.421875 
Q 24.03125 -1.421875 14.8125 8.828125 
Q 5.609375 19.09375 5.609375 36.375 
Q 5.609375 53.65625 14.8125 63.9375 
Q 24.03125 74.21875 39.40625 74.21875 
z
" id="DejaVuSans-79"/>
     <path d="M 18.109375 8.203125 
L 18.109375 -20.796875 
L 9.078125 -20.796875 
L 9.078125 54.6875 
L 18.109375 54.6875 
L 18.109375 46.390625 
Q 20.953125 51.265625 25.265625 53.625 
Q 29.59375 56 35.59375 56 
Q 45.5625 56 51.78125 48.09375 
Q 58.015625 40.1875 58.015625 27.296875 
Q 58.015625 14.40625 51.78125 6.484375 
Q 45.5625 -1.421875 35.59375 -1.421875 
Q 29.59375 -1.421875 25.265625 0.953125 
Q 20.953125 3.328125 18.109375 8.203125 
z
M 48.6875 27.296875 
Q 48.6875 37.203125 44.609375 42.84375 
Q 40.53125 48.484375 33.40625 48.484375 
Q 26.265625 48.484375 22.1875 42.84375 
Q 18.109375 37.203125 18.109375 27.296875 
Q 18.109375 17.390625 22.1875 11.75 
Q 26.265625 6.109375 33.40625 6.109375 
Q 40.53125 6.109375 44.609375 11.75 
Q 48.6875 17.390625 48.6875 27.296875 
z
" id="DejaVuSans-112"/>
    </defs>
    <g transform="translate(138.7 132.920312)scale(0.1 -0.1)">
     <use xlink:href="#DejaVuSans-79"/>
     <use x="78.710938" xlink:href="#DejaVuSans-112"/>
     <use x="142.1875" xlink:href="#DejaVuSans-116"/>
     <use x="181.396484" xlink:href="#DejaVuSans-105"/>
     <use x="209.179688" xlink:href="#DejaVuSans-109"/>
     <use x="306.591797" xlink:href="#DejaVuSans-97"/>
     <use x="367.871094" xlink:href="#DejaVuSans-108"/>
    </g>
   </g>
   <g id="patch_49">
    <path d="M 198.265625 132.920312 
L 218.265625 132.920312 
L 218.265625 125.920312 
L 198.265625 125.920312 
z
" style="fill:#dda0dd;stroke:#000000;stroke-linejoin:miter;"/>
   </g>
   <g id="text_35">
    <!-- Bottom-Up -->
    <defs>
     <path d="M 19.671875 34.8125 
L 19.671875 8.109375 
L 35.5 8.109375 
Q 43.453125 8.109375 47.28125 11.40625 
Q 51.125 14.703125 51.125 21.484375 
Q 51.125 28.328125 47.28125 31.5625 
Q 43.453125 34.8125 35.5 34.8125 
z
M 19.671875 64.796875 
L 19.671875 42.828125 
L 34.28125 42.828125 
Q 41.5 42.828125 45.03125 45.53125 
Q 48.578125 48.25 48.578125 53.8125 
Q 48.578125 59.328125 45.03125 62.0625 
Q 41.5 64.796875 34.28125 64.796875 
z
M 9.8125 72.90625 
L 35.015625 72.90625 
Q 46.296875 72.90625 52.390625 68.21875 
Q 58.5 63.53125 58.5 54.890625 
Q 58.5 48.1875 55.375 44.234375 
Q 52.25 40.28125 46.1875 39.3125 
Q 53.46875 37.75 57.5 32.78125 
Q 61.53125 27.828125 61.53125 20.40625 
Q 61.53125 10.640625 54.890625 5.3125 
Q 48.25 0 35.984375 0 
L 9.8125 0 
z
" id="DejaVuSans-66"/>
     <path d="M 4.890625 31.390625 
L 31.203125 31.390625 
L 31.203125 23.390625 
L 4.890625 23.390625 
z
" id="DejaVuSans-45"/>
     <path d="M 8.6875 72.90625 
L 18.609375 72.90625 
L 18.609375 28.609375 
Q 18.609375 16.890625 22.84375 11.734375 
Q 27.09375 6.59375 36.625 6.59375 
Q 46.09375 6.59375 50.34375 11.734375 
Q 54.59375 16.890625 54.59375 28.609375 
L 54.59375 72.90625 
L 64.5 72.90625 
L 64.5 27.390625 
Q 64.5 13.140625 57.4375 5.859375 
Q 50.390625 -1.421875 36.625 -1.421875 
Q 22.796875 -1.421875 15.734375 5.859375 
Q 8.6875 13.140625 8.6875 27.390625 
z
" id="DejaVuSans-85"/>
    </defs>
    <g transform="translate(226.265625 132.920312)scale(0.1 -0.1)">
     <use xlink:href="#DejaVuSans-66"/>
     <use x="68.603516" xlink:href="#DejaVuSans-111"/>
     <use x="129.785156" xlink:href="#DejaVuSans-116"/>
     <use x="168.994141" xlink:href="#DejaVuSans-116"/>
     <use x="208.203125" xlink:href="#DejaVuSans-111"/>
     <use x="269.384766" xlink:href="#DejaVuSans-109"/>
     <use x="366.796875" xlink:href="#DejaVuSans-45"/>
     <use x="402.880859" xlink:href="#DejaVuSans-85"/>
     <use x="476.074219" xlink:href="#DejaVuSans-112"/>
    </g>
   </g>
   <g id="patch_50">
    <path d="M 300.220312 132.920312 
L 320.220312 132.920312 
L 320.220312 125.920312 
L 300.220312 125.920312 
z
" style="fill:#eee8aa;stroke:#000000;stroke-linejoin:miter;"/>
   </g>
   <g id="text_36">
    <!-- Genetic -->
    <defs>
     <path d="M 59.515625 10.40625 
L 59.515625 29.984375 
L 43.40625 29.984375 
L 43.40625 38.09375 
L 69.28125 38.09375 
L 69.28125 6.78125 
Q 63.578125 2.734375 56.6875 0.65625 
Q 49.8125 -1.421875 42 -1.421875 
Q 24.90625 -1.421875 15.25 8.5625 
Q 5.609375 18.5625 5.609375 36.375 
Q 5.609375 54.25 15.25 64.234375 
Q 24.90625 74.21875 42 74.21875 
Q 49.125 74.21875 55.546875 72.453125 
Q 61.96875 70.703125 67.390625 67.28125 
L 67.390625 56.78125 
Q 61.921875 61.421875 55.765625 63.765625 
Q 49.609375 66.109375 42.828125 66.109375 
Q 29.4375 66.109375 22.71875 58.640625 
Q 16.015625 51.171875 16.015625 36.375 
Q 16.015625 21.625 22.71875 14.15625 
Q 29.4375 6.6875 42.828125 6.6875 
Q 48.046875 6.6875 52.140625 7.59375 
Q 56.25 8.5 59.515625 10.40625 
z
" id="DejaVuSans-71"/>
    </defs>
    <g transform="translate(328.220312 132.920312)scale(0.1 -0.1)">
     <use xlink:href="#DejaVuSans-71"/>
     <use x="77.490234" xlink:href="#DejaVuSans-101"/>
     <use x="139.013672" xlink:href="#DejaVuSans-110"/>
     <use x="202.392578" xlink:href="#DejaVuSans-101"/>
     <use x="263.916016" xlink:href="#DejaVuSans-116"/>
     <use x="303.125" xlink:href="#DejaVuSans-105"/>
     <use x="330.908203" xlink:href="#DejaVuSans-99"/>
    </g>
   </g>
   <g id="patch_51">
    <path d="M 386.809375 132.920312 
L 406.809375 132.920312 
L 406.809375 125.920312 
L 386.809375 125.920312 
z
" style="fill:#87ceeb;stroke:#000000;stroke-linejoin:miter;"/>
   </g>
   <g id="text_37">
    <!-- Top-Down -->
    <g transform="translate(414.809375 132.920312)scale(0.1 -0.1)">
     <use xlink:href="#DejaVuSans-84"/>
     <use x="60.818359" xlink:href="#DejaVuSans-111"/>
     <use x="122" xlink:href="#DejaVuSans-112"/>
     <use x="185.476562" xlink:href="#DejaVuSans-45"/>
     <use x="221.560547" xlink:href="#DejaVuSans-68"/>
     <use x="298.5625" xlink:href="#DejaVuSans-111"/>
     <use x="359.744141" xlink:href="#DejaVuSans-119"/>
     <use x="441.53125" xlink:href="#DejaVuSans-110"/>
    </g>
   </g>
  </g>
 </g>
 <defs>
  <clipPath id="pbe18da5d9f">
   <rect height="83.52" width="67.636364" x="72" y="31.68"/>
  </clipPath>
  <clipPath id="p1f7b50a6f2">
   <rect height="83.52" width="67.636364" x="166.690909" y="31.68"/>
  </clipPath>
  <clipPath id="pf96430fa71">
   <rect height="83.52" width="67.636364" x="261.381818" y="31.68"/>
  </clipPath>
  <clipPath id="pb7d9d5fcb1">
   <rect height="83.52" width="67.636364" x="356.072727" y="31.68"/>
  </clipPath>
  <clipPath id="p3f6d3c8fc2">
   <rect height="83.52" width="67.636364" x="450.763636" y="31.68"/>
  </clipPath>
 </defs>
</svg>
